<svg xmlns="http://www.w3.org/2000/svg" version="1.1" xmlns:xlink="http://www.w3.org/1999/xlink" xmlns:svgjs="http://svgjs.dev/svgjs" width="1000" height="623" viewBox="0 0 1000 623"><g transform="matrix(1,0,0,1,-0.6060606060606233,0.2522267206477409)"><svg viewBox="0 0 396 247" data-background-color="#ffffff" preserveAspectRatio="xMidYMid meet" height="623" width="1000" xmlns="http://www.w3.org/2000/svg" xmlns:xlink="http://www.w3.org/1999/xlink"><g id="tight-bounds" transform="matrix(1,0,0,1,0.2400000000000091,-0.09999999999999432)"><svg viewBox="0 0 395.52 247.2" height="247.2" width="395.52"><g><svg></svg></g><g><svg viewBox="0 0 395.52 247.2" height="247.2" width="395.52"><g><g><path xmlns="http://www.w3.org/2000/svg" d="M153.739 230.213c-15.802-11.016-28.362-25.678-37.678-43.987l22.079 0c5.545 15.523 13.809 28.241 24.79 38.156 12.128 10.987 27.488 16.48 46.081 16.48 13.522 0 25.143-3.697 34.861-11.093 9.719-7.395 17.072-16.755 22.058-28.079 2.243-5.12 3.978-10.274 5.204-15.464h23.129v23.577c-3.803 0-8.451 1.479-13.945 4.437-3.592 2.113-7.395 4.543-11.409 7.289-11.198 7.606-21.656 13.776-31.375 18.509-9.719 4.775-19.755 7.162-30.108 7.162-19.649 0-37.545-5.662-53.687-16.987zM151.204 16.797c15.719-11.198 33.509-16.797 53.37-16.797 14.156 0 27.847 3.803 41.073 11.409 13.184 7.606 23.157 15.952 29.918 25.037l4.753-31.058h5.388v55.586l-11.741 0c-1.354-6.272-3.567-12.398-6.64-18.38-5.493-10.649-13.776-19.353-24.847-26.114-11.113-6.761-24.805-10.142-41.073-10.142-14.578 0-27.467 5.388-38.665 16.164-10.276 9.888-18.328 22.712-24.156 38.472l-23.697 0c8.716-18.442 20.822-33.168 36.317-44.177z" fill="#3db09a" fill-rule="nonzero" stroke="none" stroke-width="1" stroke-linecap="butt" stroke-linejoin="miter" stroke-miterlimit="10" stroke-dasharray="" stroke-dashoffset="0" font-family="none" font-weight="none" font-size="none" text-anchor="none" style="mix-blend-mode: normal" data-fill-palette-color="tertiary"></path></g></g><g transform="matrix(1,0,0,1,0,75.12186770428016)"><svg viewBox="0 0 395.52 96.95626459143968" height="96.95626459143968" width="395.52"><g><svg viewBox="0 0 395.52 96.95626459143968" height="96.95626459143968" width="395.52"><g><svg viewBox="0 0 395.52 96.95626459143968" height="96.95626459143968" width="395.52"><g><svg viewBox="0 0 395.52 96.95626459143968" height="96.95626459143968" width="395.52"><g id="textblocktransform"><svg viewBox="0 0 395.52 96.95626459143968" height="96.95626459143968" width="395.52" id="textblock"><g><svg viewBox="0 0 395.52 96.95626459143968" height="96.95626459143968" width="395.52"><g transform="matrix(1,0,0,1,0,0)"><svg width="395.52" viewBox="1.5 -30.899999618530273 179.8800048828125 44.099998474121094" height="96.95626459143968" data-palette-color="#4e9f8d"><path d="M18.65-23.4Q17.9-23.6 16.85-22.45L16.85-22.45Q18.15-21.3 18.8-19.6 19.45-17.9 19.45-16L19.45-16Q19.45-12.3 17.43-10 15.4-7.7 11.15-7.7L11.15-7.7Q7.75-7.7 5.65-9.4L5.65-9.4Q4.55-9.1 4.1-8.22 3.65-7.35 3.65-6.5L3.65-6.5Q3.65-4.1 8-4.1L8-4.1 13.4-4Q17.65-3.95 19.78-1.68 21.9 0.6 21.9 3.7L21.9 3.7Q21.9 6.15 20.55 8.33 19.2 10.5 16.75 11.85 14.3 13.2 11.15 13.2L11.15 13.2Q8.5 13.2 6.28 12.2 4.05 11.2 2.78 9.53 1.5 7.85 1.5 5.85L1.5 5.85Q1.5 4.45 2.25 3.13 3 1.8 4.63 0.9 6.25 0 8.75 0L8.75 0 8.75 0.4Q6.25 0.4 5.4 1.85 4.55 3.3 4.55 5.85L4.55 5.85Q4.55 8.55 6.2 10.43 7.85 12.3 11.15 12.3L11.15 12.3Q14.7 12.3 16.68 10.13 18.65 7.95 18.65 4.05L18.65 4.05Q18.65-1.75 8.65-1.75L8.65-1.75Q2.15-1.75 2.15-5.3L2.15-5.3Q2.15-6.6 2.93-7.95 3.7-9.3 5.25-9.8L5.25-9.8Q3.1-12 3.1-16L3.1-16Q3.1-19.5 5.1-21.93 7.1-24.35 11.15-24.35L11.15-24.35Q14.3-24.35 16.4-22.8L16.4-22.8Q17.05-23.45 17.98-23.88 18.9-24.3 19.75-24.3L19.75-24.3Q20.3-24.3 20.55-24.2L20.55-24.2Q21.3-23.95 21.83-23.38 22.35-22.8 22.35-22.15L22.35-22.15Q22.35-21.65 21.95-21.1L21.95-21.1Q21.45-20.45 21.05-20.45L21.05-20.45Q20.7-20.45 20.45-20.8 20.2-21.15 19.85-21.85L19.85-21.85Q19.5-22.6 19.25-22.98 19-23.35 18.65-23.4L18.65-23.4ZM11.15-8.3Q13.8-8.3 14.88-10.35 15.95-12.4 15.95-16L15.95-16Q15.95-19.4 14.85-21.58 13.75-23.75 11.15-23.75L11.15-23.75Q8.6-23.75 7.55-21.58 6.5-19.4 6.5-16L6.5-16Q6.5-12.4 7.53-10.35 8.55-8.3 11.15-8.3L11.15-8.3ZM32.65 0.5Q30.8 0.5 29.2-0.48 27.6-1.45 26.67-3.25 25.75-5.05 25.75-7.5L25.75-7.5 25.7-21.05 24.95-21Q24.65-21 23.85-21.1L23.85-21.1 23.85-22.45 24.3-22.45Q24.3-22.1 24.67-21.85 25.05-21.6 25.55-21.6L25.55-21.6Q26.25-21.6 26.8-22.15 27.35-22.7 28.15-23.85L28.15-23.85 29.05-23.85 29.05-23.45 29-6.9Q29-3.3 29.95-1.73 30.9-0.15 33.1-0.15L33.1-0.15Q35.35-0.15 36.95-1.63 38.55-3.1 39.32-5.35 40.1-7.6 40.1-9.95L40.1-9.95 40.1-21.05 39.35-21Q39.05-21 38.25-21.1L38.25-21.1 38.25-22.45 38.7-22.45Q38.7-22.1 39.07-21.85 39.45-21.6 39.95-21.6L39.95-21.6Q40.65-21.6 41.2-22.15 41.75-22.7 42.55-23.85L42.55-23.85 43.45-23.85 43.45-3Q43.45-1.7 43.67-1.1 43.9-0.5 44.7-0.5L44.7-0.5Q45.1-0.5 45.95-0.75L45.95-0.75 45.95 0 40.5 0 40.5-4.95 40-4.95Q38.85-2.6 37-1.05 35.15 0.5 32.65 0.5L32.65 0.5ZM82.75-3.05Q82.75-1.8 83-1.18 83.25-0.55 84.15-0.55L84.15-0.55Q84.55-0.55 85.4-0.8L85.4-0.8 85.4-0.05 76.9-0.05 76.9-0.8Q77.75-0.55 78.15-0.55L78.15-0.55Q78.95-0.55 79.17-1.15 79.4-1.75 79.4-3.05L79.4-3.05 79.4-17.05Q79.4-20.45 77.9-22.13 76.4-23.8 74.05-23.8L74.05-23.8Q72.5-23.8 71.22-22.7 69.95-21.6 69.22-20 68.5-18.4 68.5-17.05L68.5-17.05 68.55-3Q68.55-1.75 68.8-1.13 69.05-0.5 69.95-0.5L69.95-0.5Q70.35-0.5 71.2-0.75L71.2-0.75 71.2 0 63 0 63-0.75Q63.85-0.5 64.25-0.5L64.25-0.5Q65.05-0.5 65.27-1.1 65.5-1.7 65.5-3L65.5-3 65.5-17Q65.5-20.4 64.1-22.08 62.7-23.75 60.35-23.75L60.35-23.75Q58.05-23.75 56.72-22 55.4-20.25 54.85-17.55L54.85-17.55 54.85-3Q54.85-1.7 55.07-1.1 55.3-0.5 56.1-0.5L56.1-0.5Q56.5-0.5 57.35-0.75L57.35-0.75 57.35 0 48.85 0 48.85-0.75Q49.7-0.5 50.1-0.5L50.1-0.5Q50.95-0.5 51.22-1.15 51.5-1.8 51.5-3.05L51.5-3.05 51.5-20.95Q50.55-20.55 49.45-20.55L49.45-20.55Q49.15-20.55 48.45-20.65L48.45-20.65 48.45-22 48.9-22Q48.9-21.65 49.27-21.4 49.65-21.15 50.15-21.15L50.15-21.15Q50.85-21.15 51.4-21.7 51.95-22.25 52.75-23.4L52.75-23.4 53.65-23.4 53.65-19.3 54.5-19.3Q56.5-24.4 60.8-24.4L60.8-24.4Q62.8-24.4 64.6-23.38 66.4-22.35 67.35-20.5L67.35-20.5Q67.7-19.8 67.7-19.3L67.7-19.3 68.2-19.3Q68.5-20.35 69.37-21.55 70.25-22.75 71.57-23.6 72.9-24.45 74.5-24.45L74.5-24.45Q76.4-24.45 78.32-23.48 80.25-22.5 81.5-20.68 82.75-18.85 82.75-16.45L82.75-16.45 82.75-3.05ZM93.09 0.5Q91.24 0.5 90.72-0.93 90.19-2.35 90.19-5.1L90.19-5.1 90.19-7.5 90.19-22.65 86.89-22.65 86.89-23.4 90.19-23.4 90.19-28.75Q91.24-28.75 91.77-29.45 92.29-30.15 92.29-30.9L92.29-30.9 93.34-30.9 93.29-23.4 97.39-23.4 97.39-22.65 93.29-22.65 93.24-5.05Q93.24-3.05 93.62-2.18 93.99-1.3 94.84-1.3L94.84-1.3Q95.84-1.3 96.49-2.2 97.14-3.1 97.47-4.23 97.79-5.35 97.79-6L97.79-6 98.29-6Q98.29-4.6 97.64-3.08 96.99-1.55 95.82-0.53 94.64 0.5 93.09 0.5L93.09 0.5ZM113.69-20.15Q113.69-19.55 113.49-18.8 113.29-18.05 113.24-17.9L113.24-17.9Q112.84-16.6 112.84-16.15L112.84-16.15Q112.84-15.15 114.29-15.15L114.29-15.15 114.29-14.65Q112.24-14.65 111.37-15.7 110.49-16.75 110.49-18.4L110.49-18.4Q110.49-19.2 110.64-19.95L110.64-19.95Q110.94-21.4 110.94-22.2L110.94-22.2Q110.94-23.05 110.62-23.38 110.29-23.7 109.59-23.7L109.59-23.7Q108.14-23.7 107.34-20.63 106.54-17.55 106.54-13.45L106.54-13.45 106.54-3Q106.54-1.7 106.77-1.1 106.99-0.5 107.79-0.5L107.79-0.5Q108.19-0.5 109.04-0.75L109.04-0.75 109.04 0 100.79 0 100.79-0.75Q101.64-0.5 102.04-0.5L102.04-0.5Q102.94-0.5 103.19-1.13 103.44-1.75 103.44-3L103.44-3 103.44-20.8Q102.69-20.55 101.84-20.55L101.84-20.55Q101.49-20.55 100.79-20.65L100.79-20.65 100.79-22 101.24-22Q101.24-21.65 101.62-21.4 101.99-21.15 102.49-21.15L102.49-21.15Q103.24-21.15 103.79-21.7 104.34-22.25 105.09-23.35L105.09-23.35 105.59-23.35 105.64-19.3 106.14-19.3Q106.74-21.9 107.82-23.13 108.89-24.35 110.09-24.35L110.09-24.35Q111.84-24.35 112.77-23.05 113.69-21.75 113.69-20.15L113.69-20.15ZM126.24 0.5Q121.49 0.5 119.14-2.68 116.79-5.85 116.79-11.95L116.79-11.95Q116.79-15.15 117.79-17.98 118.79-20.8 120.91-22.58 123.04-24.35 126.14-24.35L126.14-24.35Q131.19-24.35 133.34-21.28 135.49-18.2 135.49-13.9L135.49-13.9Q135.49-13.15 135.39-11.95L135.39-11.95 135.34-11.5 120.29-11.5Q120.49-0.3 126.54-0.3L126.54-0.3Q129.24-0.3 130.54-1.95 131.84-3.6 131.84-5.7L131.84-5.7Q131.84-6.55 131.41-6.95 130.99-7.35 130.34-7.35L130.34-7.35Q129.84-7.35 129.46-7.08 129.09-6.8 129.09-6.4L129.09-6.4 128.64-6.4 128.64-7.75 134.99-7.75Q135.14-5.85 134.06-3.95 132.99-2.05 130.94-0.8 128.89 0.45 126.24 0.5L126.24 0.5ZM130.69-12.25Q131.59-12.25 131.76-12.43 131.94-12.6 131.99-13.3L131.99-13.3Q132.04-13.85 132.04-14.95L132.04-14.95Q132.04-18.75 130.64-21.25 129.24-23.75 125.94-23.75L125.94-23.75Q122.74-23.75 121.54-20.6 120.34-17.45 120.29-12.25L120.29-12.25 130.69-12.25ZM149.19 0.5Q144.44 0.5 142.09-2.68 139.74-5.85 139.74-11.95L139.74-11.95Q139.74-15.15 140.74-17.98 141.74-20.8 143.86-22.58 145.99-24.35 149.09-24.35L149.09-24.35Q154.14-24.35 156.29-21.28 158.44-18.2 158.44-13.9L158.44-13.9Q158.44-13.15 158.34-11.95L158.34-11.95 158.29-11.5 143.24-11.5Q143.44-0.3 149.49-0.3L149.49-0.3Q152.19-0.3 153.49-1.95 154.79-3.6 154.79-5.7L154.79-5.7Q154.79-6.55 154.36-6.95 153.94-7.35 153.29-7.35L153.29-7.35Q152.79-7.35 152.41-7.08 152.04-6.8 152.04-6.4L152.04-6.4 151.59-6.4 151.59-7.75 157.94-7.75Q158.09-5.85 157.01-3.95 155.94-2.05 153.89-0.8 151.84 0.45 149.19 0.5L149.19 0.5ZM153.64-12.25Q154.54-12.25 154.71-12.43 154.89-12.6 154.94-13.3L154.94-13.3Q154.99-13.85 154.99-14.95L154.99-14.95Q154.99-18.75 153.59-21.25 152.19-23.75 148.89-23.75L148.89-23.75Q145.69-23.75 144.49-20.6 143.29-17.45 143.24-12.25L143.24-12.25 153.64-12.25ZM172.13 0.5Q167.38 0.5 165.03-2.68 162.68-5.85 162.68-11.95L162.68-11.95Q162.68-15.15 163.68-17.98 164.68-20.8 166.81-22.58 168.93-24.35 172.03-24.35L172.03-24.35Q177.08-24.35 179.23-21.28 181.38-18.2 181.38-13.9L181.38-13.9Q181.38-13.15 181.28-11.95L181.28-11.95 181.23-11.5 166.18-11.5Q166.38-0.3 172.43-0.3L172.43-0.3Q175.13-0.3 176.43-1.95 177.73-3.6 177.73-5.7L177.73-5.7Q177.73-6.55 177.31-6.95 176.88-7.35 176.23-7.35L176.23-7.35Q175.73-7.35 175.36-7.08 174.98-6.8 174.98-6.4L174.98-6.4 174.53-6.4 174.53-7.75 180.88-7.75Q181.03-5.85 179.96-3.95 178.88-2.05 176.83-0.8 174.78 0.45 172.13 0.5L172.13 0.5ZM176.58-12.25Q177.48-12.25 177.66-12.43 177.83-12.6 177.88-13.3L177.88-13.3Q177.93-13.85 177.93-14.95L177.93-14.95Q177.93-18.75 176.53-21.25 175.13-23.75 171.83-23.75L171.83-23.75Q168.63-23.75 167.43-20.6 166.23-17.45 166.18-12.25L166.18-12.25 176.58-12.25Z" opacity="1" transform="matrix(1,0,0,1,0,0)" fill="#4e9f8d" class="undefined-text-0" data-fill-palette-color="primary" id="text-0"></path></svg></g></svg></g></svg></g></svg></g></svg></g></svg></g></svg></g></svg></g><defs></defs></svg><rect width="395.52" height="247.2" fill="none" stroke="none" visibility="hidden"></rect></g></svg></g></svg>